<svg width="40" height="40" viewBox="0 0 40 40" fill="none" xmlns="http://www.w3.org/2000/svg">
    <rect width="40" height="40" rx="12" fill="#0562F7"/>
    <g clip-path="url(#clip0_2801_31009)">
        <path d="M29.9667 14.7444C30.4001 14.3111 30.4001 13.6111 29.9667 13.1778L26.8223 10.0333C26.3889 9.59998 25.6889 9.59998 25.2556 10.0333L20.2667 15.0222L15.9445 10.7C15.0778 9.83331 13.6667 9.83331 12.8001 10.7L10.6889 12.8111C9.82228 13.6778 9.82228 15.0889 10.6889 15.9555L15.0112 20.2778L10.0001 25.2889V30H14.7112L19.7334 24.9778L24.0556 29.3C25.1112 30.3555 26.5334 29.9667 27.2001 29.3L29.3112 27.1889C30.1778 26.3222 30.1778 24.9111 29.3112 24.0444L24.9889 19.7222L29.9667 14.7444ZM12.2667 14.3778L14.3667 12.2666L15.7778 13.6778L14.4667 15L16.0334 16.5666L17.3556 15.2444L18.6889 16.5778L16.5778 18.6889L12.2667 14.3778ZM24.7445 22.6444L23.4223 23.9666L24.9889 25.5333L26.3112 24.2111L27.7223 25.6222L25.6112 27.7333L21.2889 23.4111L23.4001 21.3L24.7445 22.6444ZM13.7889 27.7778H12.2223V26.2111L22.9001 15.5333L24.3445 16.9778L24.4667 17.1L13.7889 27.7778ZM24.4667 13.9555L26.0334 12.3889L27.6001 13.9555L26.0334 15.5222L24.4667 13.9555Z" fill="#E5EFFD"/>
    </g>
    <defs>
        <clipPath id="clip0_2801_31009">
            <rect width="26.6667" height="26.6667" fill="white" transform="translate(6.66672 6.66666)"/>
        </clipPath>
    </defs>
</svg>
