<svg width="38" height="40" viewBox="0 0 38 40" fill="none" xmlns="http://www.w3.org/2000/svg">
<path d="M37.4359 6.73805V5.86341C37.4359 5.34786 37.0899 4.899 36.5952 4.76562L19.0114 0.0487278C18.8192 -0.00257072 18.6167 -0.00257072 18.4245 0.0487278L0.840738 4.76562C0.343472 4.89644 0 5.34786 0 5.86341V34.1494C0 34.665 0.346035 35.1138 0.840738 35.2472L18.4245 39.9641C18.5193 39.9872 18.6193 40 18.7192 40C18.8141 40 18.914 39.9872 19.0114 39.9641L36.5952 35.2472C37.0899 35.1164 37.4359 34.665 37.4359 34.1494V32.6643L19.8573 37.3761V11.4524L37.4359 6.73805ZM17.5812 37.3786L2.27358 33.2748V26.2033L17.5812 30.3097V37.3786ZM17.5812 27.9525L2.27358 23.8487V16.7797L17.5812 20.881V27.9525ZM17.5812 18.5213L2.27358 14.42V7.3485L17.5812 11.4524V18.5213ZM18.7192 9.40301L5.53144 5.86341L18.7192 2.33151L31.907 5.86598L18.7192 9.40301Z" fill="currentColor"/>
<path d="M37.4358 16.1693V13.8096L28.6465 16.1667V18.5265L37.4358 16.1693Z" fill="currentColor"/>
<path d="M37.4358 25.5929V23.2357L28.6465 25.5929V27.9501L37.4358 25.5929Z" fill="currentColor"/>
</svg>
